<?xml version="1.0" encoding="UTF-8"?>
<svg version="1.1" xmlns="http://www.w3.org/2000/svg" width="302" height="220">
<path d="M0 0 C99.66 0 199.32 0 302 0 C302 72.6 302 145.2 302 220 C202.34 220 102.68 220 0 220 C0 147.4 0 74.8 0 0 Z " fill="#020203" transform="translate(0,0)"/>
<path d="M0 0 C4.13169551 3.68071798 6.88640524 8.12430977 9.875 12.7265625 C10.44017334 13.58825043 11.00534668 14.44993835 11.58764648 15.33773804 C13.39628522 18.09723011 15.19834277 20.86094587 17 23.625 C18.7676256 26.32762821 20.53661422 29.02935977 22.3059082 31.730896 C23.47601069 33.51820925 24.64512075 35.3061726 25.81323242 37.0947876 C28.66651027 41.45960668 31.53595935 45.81196486 34.4453125 50.13964844 C35.2650354 51.35991226 35.2650354 51.35991226 36.10131836 52.60482788 C37.12499076 54.12538791 38.15163397 55.64395412 39.18188477 57.1600647 C41.76328144 60.9940815 44.03583225 64.79986703 46 69 C42.45837081 67.7038066 39.55944614 66.17034639 36.48828125 63.98828125 C35.64716797 63.39466797 34.80605469 62.80105469 33.93945312 62.18945312 C33.07255859 61.57005859 32.20566406 60.95066406 31.3125 60.3125 C30.04116211 59.41241211 30.04116211 59.41241211 28.74414062 58.49414062 C27.03468727 57.28387365 25.32651058 56.07180137 23.61962891 54.85791016 C19.42747759 51.88472548 15.21395845 48.94216042 11 46 C7.4636201 49.45176881 4.97134047 52.98903863 2.3671875 57.171875 C1.91601562 57.77515625 1.46484375 58.3784375 1 59 C0.34 59 -0.32 59 -1 59 C-2.7265625 56.4453125 -2.7265625 56.4453125 -4.625 53.125 C-5.25664062 52.03445312 -5.88828125 50.94390625 -6.5390625 49.8203125 C-8 47 -8 47 -8 45 C-16.3507061 50.11310486 -24.59078913 55.25040207 -32.44921875 61.10546875 C-36.56686235 64.16374922 -40.78682435 67.07545291 -45 70 C-43.63822574 74.82810874 -41.49919083 78.78443885 -38.92578125 83.046875 C-38.46751953 84.01367188 -38.46751953 84.01367188 -38 85 C-38.33 85.66 -38.66 86.32 -39 87 C-39.83144531 86.48308594 -40.66289063 85.96617188 -41.51953125 85.43359375 C-42.60621094 84.77488281 -43.69289063 84.11617188 -44.8125 83.4375 C-46.43091797 82.44556641 -46.43091797 82.44556641 -48.08203125 81.43359375 C-50.95899345 79.59624773 -50.95899345 79.59624773 -54 81 C-55.39712274 82.95597184 -56.73779907 84.95436401 -58 87 C-61.75376152 85.74874616 -62.24073289 84.4347596 -64 81 C-64 80.34 -64 79.68 -64 79 C-69.43925513 81.90936902 -74.45303798 85.33346443 -79.4675293 88.91381836 C-81.97779457 90.687988 -84.06329977 92.02109992 -87 93 C-87 93.66 -87 94.32 -87 95 C-85.948125 95.2784375 -85.948125 95.2784375 -84.875 95.5625 C-80.46871112 97.76564444 -77.20499255 101.59001489 -75 106 C-74.14619836 116.53955137 -75.33921991 123.56112672 -81.1875 132.25 C-88.15410159 139.06178822 -96.73864768 142.25220978 -106.44116211 142.18017578 C-107.26495361 142.16196777 -108.08874512 142.14375977 -108.9375 142.125 C-112.9284375 142.063125 -112.9284375 142.063125 -117 142 C-117.66 149.59 -118.32 157.18 -119 165 C-124.94 165 -130.88 165 -137 165 C-136.31860274 153.691868 -135.02063057 142.54169608 -133.5625 131.3125 C-133.12358573 127.9131041 -132.68729735 124.51338575 -132.25390625 121.11328125 C-132.14825348 120.28482697 -132.04260071 119.45637268 -131.93374634 118.60281372 C-130.81914214 109.74958265 -129.89601254 100.87763936 -129 92 C-123.96460323 91.97522513 -118.92924219 91.95710451 -113.89379883 91.94506836 C-112.18187848 91.94004901 -110.46996239 91.93323215 -108.75805664 91.92456055 C-106.29312078 91.91238979 -103.82824175 91.90674762 -101.36328125 91.90234375 C-100.22080681 91.89460182 -100.22080681 91.89460182 -99.05525208 91.88670349 C-95.24150175 91.88630362 -91.70684229 92.07409039 -88 93 C-87.784646 92.3505542 -87.56929199 91.7011084 -87.34741211 91.03198242 C-85.49496072 86.86354724 -82.99679546 83.25632142 -80.44140625 79.48828125 C-79.89645004 78.67884567 -79.35149384 77.8694101 -78.7900238 77.03544617 C-77.63996369 75.33022363 -76.48748995 73.62662676 -75.33276367 71.92456055 C-73.56499394 69.31617986 -71.80845217 66.70048784 -70.05273438 64.08398438 C-68.93296138 62.42663065 -67.81254068 60.76971432 -66.69140625 59.11328125 C-66.16631973 58.32995926 -65.64123322 57.54663727 -65.10023499 56.73957825 C-64.60639816 56.01509995 -64.11256134 55.29062164 -63.60375977 54.54418945 C-63.1723317 53.90641068 -62.74090363 53.2686319 -62.29640198 52.61152649 C-61 51 -61 51 -58 49 C-57.31292969 50.04800781 -56.62585938 51.09601563 -55.91796875 52.17578125 C-55.00799762 53.55480967 -54.09783112 54.93370919 -53.1875 56.3125 C-52.73568359 57.00279297 -52.28386719 57.69308594 -51.81835938 58.40429688 C-51.37685547 59.07138672 -50.93535156 59.73847656 -50.48046875 60.42578125 C-50.07723389 61.03848877 -49.67399902 61.65119629 -49.25854492 62.2824707 C-47.97288191 64.0370079 -46.57554838 65.50453032 -45 67 C-44.59072266 66.38318359 -44.18144531 65.76636719 -43.75976562 65.13085938 C-36.08290764 53.58725943 -28.31088747 42.10769604 -20.55419922 30.61767578 C-10.23659124 15.33599892 -10.23659124 15.33599892 0 0 Z " fill="#F7F7F8" transform="translate(147,22)"/>
<path d="M0 0 C4.75213198 2.03200192 7.94646206 4.1705741 10 9 C12.78901907 7.82003039 14.63892179 6.46756518 17 4.5 C21.5624683 0.69794308 24.72597392 -0.51891314 30.6171875 -0.3828125 C35.7071675 0.43492199 39.55417773 3.16619331 42.703125 7.16015625 C44.40361211 10.88381327 44.44591035 14.23638968 44.375 18.25 C44.36629883 19.45813354 44.36629883 19.45813354 44.35742188 20.69067383 C44.13032746 31.86350869 42.51149436 42.942699 41 54 C35.72 54 30.44 54 25 54 C24.78797655 48.16935522 25.24703893 42.59167028 26 36.8125 C26.98864283 29.15646349 27.22041457 21.72675526 27 14 C21.25728483 13.52999566 21.25728483 13.52999566 16.125 15.75 C12.17793017 19.9292504 11.60451111 23.78800446 11.1484375 29.390625 C11.08467926 30.09523865 11.02092102 30.79985229 10.95523071 31.52581787 C10.75421962 33.76661454 10.56446141 36.00820023 10.375 38.25 C10.24032567 39.7735033 10.1049172 41.2969419 9.96875 42.8203125 C9.63594264 46.54613152 9.31838199 50.27280814 9 54 C3.39 54 -2.22 54 -8 54 C-7.11517134 40.85397412 -7.11517134 40.85397412 -6.47265625 36.08984375 C-5.90795171 31.74019251 -5.85208187 27.44368263 -5.875 23.0625 C-5.87113281 22.29615234 -5.86726563 21.52980469 -5.86328125 20.74023438 C-5.52320468 17.07014554 -5.52320468 17.07014554 -7 14 C-12.58429878 13.39194115 -12.58429878 13.39194115 -17.375 15.75 C-20.34423208 19.86124442 -21.30498131 23.05416344 -21.81640625 28.12109375 C-21.94080078 29.30380859 -22.06519531 30.48652344 -22.19335938 31.70507812 C-22.31517578 32.93677734 -22.43699219 34.16847656 -22.5625 35.4375 C-22.81189465 37.87389392 -23.06312662 40.31010064 -23.31640625 42.74609375 C-23.42412354 43.82560303 -23.53184082 44.9051123 -23.64282227 46.01733398 C-23.96374635 48.69725848 -24.47066851 51.35334253 -25 54 C-30.28 54 -35.56 54 -41 54 C-40.3425653 43.8097622 -39.38045279 33.68837809 -38.27490234 23.5390625 C-37.79768017 19.13132657 -37.3373642 14.72181471 -36.875 10.3125 C-36.70580209 8.70441941 -36.53653823 7.09634575 -36.3671875 5.48828125 C-36.24601563 4.33714844 -36.12484375 3.18601563 -36 2 C-31.05 2 -26.1 2 -21 2 C-20.67 3.98 -20.34 5.96 -20 8 C-19.54109375 7.59007812 -19.0821875 7.18015625 -18.609375 6.7578125 C-17.99578125 6.21898437 -17.3821875 5.68015625 -16.75 5.125 C-16.14671875 4.59132812 -15.5434375 4.05765625 -14.921875 3.5078125 C-10.19241127 -0.20270173 -5.89470257 -0.95511547 0 0 Z " fill="#F5F5F5" transform="translate(188,133)"/>
<path d="M0 0 C4.13169551 3.68071798 6.88640524 8.12430977 9.875 12.7265625 C10.44017334 13.58825043 11.00534668 14.44993835 11.58764648 15.33773804 C13.39628522 18.09723011 15.19834277 20.86094587 17 23.625 C18.7676256 26.32762821 20.53661422 29.02935977 22.3059082 31.730896 C23.47601069 33.51820925 24.64512075 35.3061726 25.81323242 37.0947876 C28.66651027 41.45960668 31.53595935 45.81196486 34.4453125 50.13964844 C35.2650354 51.35991226 35.2650354 51.35991226 36.10131836 52.60482788 C37.12499076 54.12538791 38.15163397 55.64395412 39.18188477 57.1600647 C41.76328144 60.9940815 44.03583225 64.79986703 46 69 C42.45837081 67.7038066 39.55944614 66.17034639 36.48828125 63.98828125 C35.64716797 63.39466797 34.80605469 62.80105469 33.93945312 62.18945312 C33.07255859 61.57005859 32.20566406 60.95066406 31.3125 60.3125 C30.46494141 59.71244141 29.61738281 59.11238281 28.74414062 58.49414062 C27.03468727 57.28387365 25.32651058 56.07180137 23.61962891 54.85791016 C19.42747759 51.88472548 15.21395845 48.94216042 11 46 C7.4636201 49.45176881 4.97134047 52.98903863 2.3671875 57.171875 C1.91601562 57.77515625 1.46484375 58.3784375 1 59 C0.34 59 -0.32 59 -1 59 C-2.7265625 56.4453125 -2.7265625 56.4453125 -4.625 53.125 C-5.25664062 52.03445312 -5.88828125 50.94390625 -6.5390625 49.8203125 C-8 47 -8 47 -8 45 C-16.3507061 50.11310486 -24.59078913 55.25040207 -32.44921875 61.10546875 C-36.56686235 64.16374922 -40.78682435 67.07545291 -45 70 C-43.63822574 74.82810874 -41.49919083 78.78443885 -38.92578125 83.046875 C-38.62027344 83.69140625 -38.31476563 84.3359375 -38 85 C-38.33 85.66 -38.66 86.32 -39 87 C-39.83144531 86.48308594 -40.66289063 85.96617188 -41.51953125 85.43359375 C-42.60621094 84.77488281 -43.69289062 84.11617188 -44.8125 83.4375 C-45.89144531 82.77621094 -46.97039062 82.11492187 -48.08203125 81.43359375 C-50.95899345 79.59624773 -50.95899345 79.59624773 -54 81 C-55.39712274 82.95597184 -56.73779907 84.95436401 -58 87 C-61.75376152 85.74874616 -62.24073289 84.4347596 -64 81 C-64 80.34 -64 79.68 -64 79 C-69.43925513 81.90936902 -74.45303798 85.33346443 -79.4675293 88.91381836 C-81.97779457 90.687988 -84.06329977 92.02109992 -87 93 C-87.495 93.99 -87.495 93.99 -88 95 C-88.99 94.34 -89.98 93.68 -91 93 C-90.01 93 -89.02 93 -88 93 C-87.784646 92.3505542 -87.56929199 91.7011084 -87.34741211 91.03198242 C-85.49496072 86.86354724 -82.99679546 83.25632142 -80.44140625 79.48828125 C-79.89645004 78.67884567 -79.35149384 77.8694101 -78.7900238 77.03544617 C-77.63996369 75.33022363 -76.48748995 73.62662676 -75.33276367 71.92456055 C-73.56499394 69.31617986 -71.80845217 66.70048784 -70.05273438 64.08398438 C-68.93296138 62.42663065 -67.81254068 60.76971432 -66.69140625 59.11328125 C-65.90377647 57.93829826 -65.90377647 57.93829826 -65.10023499 56.73957825 C-64.60639816 56.01509995 -64.11256134 55.29062164 -63.60375977 54.54418945 C-63.1723317 53.90641068 -62.74090363 53.2686319 -62.29640198 52.61152649 C-61 51 -61 51 -58 49 C-57.31292969 50.04800781 -56.62585938 51.09601563 -55.91796875 52.17578125 C-55.00799762 53.55480967 -54.09783112 54.93370919 -53.1875 56.3125 C-52.73568359 57.00279297 -52.28386719 57.69308594 -51.81835938 58.40429688 C-51.15610352 59.40493164 -51.15610352 59.40493164 -50.48046875 60.42578125 C-49.87561646 61.34484253 -49.87561646 61.34484253 -49.25854492 62.2824707 C-47.97288191 64.0370079 -46.57554838 65.50453032 -45 67 C-44.59072266 66.38318359 -44.18144531 65.76636719 -43.75976562 65.13085938 C-36.08290764 53.58725943 -28.31088747 42.10769604 -20.55419922 30.61767578 C-10.23659124 15.33599892 -10.23659124 15.33599892 0 0 Z " fill="#F8F8F8" transform="translate(147,22)"/>
<path d="M0 0 C92.73 0 185.46 0 281 0 C281 2.31 281 4.62 281 7 C187.94 7 94.88 7 -1 7 C-0.67 4.69 -0.34 2.38 0 0 Z " fill="#F8F8F9" transform="translate(8,196)"/>
<path d="M0 0 C5.56806612 3.57196694 8.16555561 7.76705826 10 14 C10.75821641 19.21273784 9.6927495 22.9217515 8 28 C-3.22 28 -14.44 28 -26 28 C-23.58547582 35.78447715 -23.58547582 35.78447715 -18 40 C-12.04210305 40.79438626 -8.28757346 39.58021444 -2.98046875 36.875 C-1 36 -1 36 2 36 C6 41.14285714 6 41.14285714 6 45 C4.06374902 45.98163422 2.12595461 46.96022454 0.1875 47.9375 C-0.89144531 48.48277344 -1.97039062 49.02804688 -3.08203125 49.58984375 C-10.05995997 52.96204223 -19.09998598 53.42639926 -26.58984375 51.24609375 C-28.53306383 50.29499755 -30.24121677 49.25564872 -32 48 C-32.9075 47.443125 -33.815 46.88625 -34.75 46.3125 C-40.6880988 40.20945401 -41.63313653 33.22428827 -41.53833008 24.95410156 C-41.10014328 15.57226841 -37.01109929 8.98798505 -30.234375 2.6953125 C-20.95023864 -4.34894481 -10.38452217 -4.8395792 0 0 Z " fill="#F7F7F7" transform="translate(282,136)"/>
<path d="M0 0 C1.49080078 0.02707031 1.49080078 0.02707031 3.01171875 0.0546875 C3.77097656 0.07789063 4.53023437 0.10109375 5.3125 0.125 C4.69737182 5.13390086 4.0407448 10.13132136 3.3125 15.125 C2.49265625 15.15078125 1.6728125 15.1765625 0.828125 15.203125 C-0.78835937 15.28820312 -0.78835937 15.28820312 -2.4375 15.375 C-4.03851563 15.44460937 -4.03851563 15.44460937 -5.671875 15.515625 C-10.44953326 16.48105853 -12.0753924 19.2068386 -14.6875 23.125 C-15.12366879 25.3963391 -15.46736574 27.68593934 -15.7578125 29.98046875 C-15.84376678 30.64210526 -15.92972107 31.30374176 -16.01828003 31.98542786 C-16.29042929 34.09358097 -16.5515964 36.2029286 -16.8125 38.3125 C-16.99537085 39.74423314 -17.17895632 41.17587521 -17.36328125 42.60742188 C-17.81432873 46.11218267 -18.25049415 49.61834627 -18.6875 53.125 C-23.9675 53.125 -29.2475 53.125 -34.6875 53.125 C-34.08440137 41.19634399 -33.04218631 29.41883743 -31.625 17.5625 C-31.43640382 15.95382817 -31.24825102 14.34510429 -31.06054688 12.73632812 C-30.60874355 8.86514984 -30.1479824 4.99519393 -29.6875 1.125 C-24.7375 1.125 -19.7875 1.125 -14.6875 1.125 C-14.3575 3.435 -14.0275 5.745 -13.6875 8.125 C-12.924375 7.17625 -12.16125 6.2275 -11.375 5.25 C-7.96201819 1.00683342 -5.44357017 -0.128084 0 0 Z " fill="#F6F6F7" transform="translate(110.6875,133.875)"/>
<path d="M0 0 C5.28 0 10.56 0 16 0 C15.21028192 11.13086846 14.0936593 22.21479179 12.9375 33.3125 C12.74919371 35.1321454 12.56104157 36.95180676 12.37304688 38.77148438 C11.91742233 43.18120743 11.4586473 47.59058619 11 52 C5.39 52 -0.22 52 -6 52 C-5.37357718 40.41477804 -4.0506672 29.04775654 -2.4375 17.5625 C-2.20069374 15.84837328 -1.96436292 14.1341808 -1.72851562 12.41992188 C-1.15866733 8.27902427 -0.57916583 4.13964656 0 0 Z " fill="#F4F4F5" transform="translate(124,135)"/>
<path d="M0 0 C0.66 0 1.32 0 2 0 C3.82297198 2.47297788 5.52382222 4.95235579 7.19921875 7.5234375 C7.71249222 8.29877838 8.22576569 9.07411926 8.7545929 9.87295532 C10.4054375 12.36938957 12.04673759 14.87193033 13.6875 17.375 C15.83493025 20.63433824 17.98590092 23.8913341 20.13671875 27.1484375 C20.65096405 27.92878357 21.16520935 28.70912964 21.69503784 29.51312256 C25.36870984 35.07803195 29.11544186 40.5794052 33 46 C32.505 46.99 32.505 46.99 32 48 C31.10539062 47.35933594 30.21078125 46.71867187 29.2890625 46.05859375 C26.14188572 43.80599717 22.99085832 41.55884163 19.83886719 39.31298828 C18.19422803 38.13868273 16.55385415 36.95840888 14.9140625 35.77734375 C14.03492188 35.14957031 13.15578125 34.52179688 12.25 33.875 C11.47140625 33.31554687 10.6928125 32.75609375 9.890625 32.1796875 C8.0886161 30.82354382 8.0886161 30.82354382 6 31 C4.71536479 32.56418154 4.71536479 32.56418154 3.5 34.5 C2.21875 36.46875 2.21875 36.46875 1 38 C0.34 38 -0.32 38 -1 38 C-2.33910869 36.17313649 -3.59657799 34.28606672 -4.8125 32.375 C-7.6322549 27.95720219 -10.5898286 23.96365471 -14 20 C-13.61142822 19.4652002 -13.22285645 18.93040039 -12.82250977 18.37939453 C-11.06765305 15.96236243 -9.31505123 13.54370422 -7.5625 11.125 C-6.95083984 10.28324219 -6.33917969 9.44148438 -5.70898438 8.57421875 C-5.12568359 7.76855469 -4.54238281 6.96289062 -3.94140625 6.1328125 C-3.40201416 5.38918457 -2.86262207 4.64555664 -2.30688477 3.87939453 C-0.95785485 2.0352689 -0.95785485 2.0352689 0 0 Z " fill="#F7F7F7" transform="translate(207,71)"/>
<path d="M0 0 C2.39706123 -0.10854617 4.78915838 -0.18753157 7.1875 -0.25 C7.86103516 -0.28351563 8.53457031 -0.31703125 9.22851562 -0.3515625 C12.89041975 -0.42301429 14.82150622 -0.11534178 17.92578125 1.890625 C20.75016623 4.76288091 20.96387329 5.57370477 21.3125 9.6875 C21.22941843 14.25698617 20.04468973 17.56449935 17 21 C11.02515341 24.85875509 4.93365569 24.30740345 -2 24 C-1.86076462 20.74968216 -1.71245815 17.49983939 -1.5625 14.25 C-1.52318359 13.32960937 -1.48386719 12.40921875 -1.44335938 11.4609375 C-1.40146484 10.57148438 -1.35957031 9.68203125 -1.31640625 8.765625 C-1.27974854 7.94868164 -1.24309082 7.13173828 -1.20532227 6.29003906 C-1.00865725 4.0965577 -0.59699406 2.11603587 0 0 Z " fill="#070708" transform="translate(34,127)"/>
<path d="M0 0 C3.94380481 2.45557658 5.66209574 4.02185608 7.1875 8.4375 C6.93037273 13.32291805 5.45582393 14.62454407 2 18 C-1.10048928 19.55024464 -3.57894218 19.28992015 -7 19 C-10.75514634 16.9591596 -11.77457968 15.71604102 -13.0625 11.625 C-12.98555937 7.16244349 -11.83426017 5.38536632 -9 2 C-5.45870816 -0.36086122 -4.17249782 -0.57269578 0 0 Z " fill="#F3F2F3" transform="translate(137,109)"/>
<path d="M0 0 C2.5625 1.625 2.5625 1.625 4 4 C4 5.98 4 7.96 4 10 C-2.6 10 -9.2 10 -16 10 C-13.08497397 1.2549219 -9.0671072 -1.65779199 0 0 Z " fill="#0B0C0E" transform="translate(273,145)"/>
<path d="M0 0 C2.38672669 2.96283313 4.7353371 5.94270509 7 9 C6.67 9.66 6.34 10.32 6 11 C3.03 9.02 0.06 7.04 -3 5 C-2.67 4.34 -2.34 3.68 -2 3 C-1.34 3 -0.68 3 0 3 C0 2.01 0 1.02 0 0 Z " fill="#D4D4D3" transform="translate(233,108)"/>
</svg>
